<?xml version="1.0" ?><!DOCTYPE svg  PUBLIC '-//W3C//DTD SVG 1.1//EN'  'http://www.w3.org/Graphics/SVG/1.1/DTD/svg11.dtd'><svg enable-background="new 0 0 64 64" id="Layer_1" version="1.1" viewBox="0 0 64 64" xml:space="preserve" xmlns="http://www.w3.org/2000/svg" xmlns:xlink="http://www.w3.org/1999/xlink"><path d="  M26.5,34V16c0-2.2,1.8-4,4-4h26c2.2,0,4,1.8,4,4v18c0,2.2-1.8,4-4,4h-4v6l-8.3-6H30.5C28.3,38,26.5,36.2,26.5,34z" fill="none" stroke="#2C3E50" stroke-linecap="round" stroke-linejoin="round" stroke-miterlimit="10" stroke-width="2"/><path d="  M22.5,20h-15c-2.2,0-4,1.8-4,4v18c0,2.2,1.8,4,4,4h4v6l8.3-6h13.3c2.2,0,4.4-2.3,4.4-4.5" fill="none" stroke="#2C3E50" stroke-linecap="round" stroke-linejoin="round" stroke-miterlimit="10" stroke-width="2"/><line fill="none" stroke="#2C3E50" stroke-linecap="round" stroke-linejoin="round" stroke-miterlimit="10" stroke-width="2" x1="36" x2="50.7" y1="21" y2="21"/><line fill="none" stroke="#2C3E50" stroke-linecap="round" stroke-linejoin="round" stroke-miterlimit="10" stroke-width="2" x1="36" x2="50.7" y1="25" y2="25"/><line fill="none" stroke="#2C3E50" stroke-linecap="round" stroke-linejoin="round" stroke-miterlimit="10" stroke-width="2" x1="36" x2="50.7" y1="29" y2="29"/></svg>