<?xml version="1.0" ?><svg enable-background="new 0 0 512 512" id="Layer_2" version="1.0" viewBox="0 0 512 512" xml:space="preserve" xmlns="http://www.w3.org/2000/svg" xmlns:xlink="http://www.w3.org/1999/xlink"><g><path d="   M390.593,16.284c-58.027,0-105.067,47.04-105.067,105.067c0,34.813,16.936,65.666,43.014,84.785l-7.137,40.445l41.149-23.954   c8.927,2.466,18.329,3.79,28.041,3.79c58.027,0,105.067-47.04,105.067-105.067S448.62,16.284,390.593,16.284z" fill="none" stroke="#474747" stroke-linecap="round" stroke-linejoin="round" stroke-miterlimit="10" stroke-width="15"/><g><path d="    M118.365,442.608c-13.891,0-25.152-11.261-25.152-25.152v-22.988c0-41.548,33.681-75.229,75.229-75.229h74.404    c41.548,0,75.229,33.681,75.229,75.229v22.988c0,13.891-11.261,25.152-25.152,25.152H118.365z" fill="none" stroke="#474747" stroke-linecap="round" stroke-linejoin="round" stroke-miterlimit="10" stroke-width="15"/><g><circle cx="151.716" cy="379.104" fill="#474747" r="14.411"/><circle cx="259.571" cy="379.104" fill="#474747" r="14.411"/></g><path d="    M37.396,348.138h11.82c1.12,0,2.216,0.098,3.285,0.277c19.501-49.698,67.895-84.887,124.51-84.887h57.267    c56.615,0,105.009,35.189,124.51,84.887c1.069-0.179,2.165-0.277,3.285-0.277h11.82c10.921,0,19.775,8.853,19.775,19.775v41.419    c0,10.921-8.853,19.775-19.775,19.775h-7.032c-6.321,37.227-38.722,65.574-77.748,65.574H122.176    c-39.027,0-71.428-28.348-77.749-65.574h-7.032c-10.921,0-19.775-8.853-19.775-19.775v-41.419    C17.621,356.991,26.474,348.138,37.396,348.138z" fill="none" stroke="#474747" stroke-linecap="round" stroke-linejoin="round" stroke-miterlimit="10" stroke-width="15"/><path d="    M358.787,348.415c0,0,2.885,15.631,3.316,32.508" fill="none" stroke="#474747" stroke-linecap="round" stroke-linejoin="round" stroke-miterlimit="10" stroke-width="15"/><path d="    M52.499,348.415c0,0-2.885,15.631-3.316,32.508" fill="none" stroke="#474747" stroke-linecap="round" stroke-linejoin="round" stroke-miterlimit="10" stroke-width="15"/><line fill="none" stroke="#474747" stroke-linecap="round" stroke-linejoin="round" stroke-miterlimit="10" stroke-width="15" x1="201.489" x2="201.489" y1="263.528" y2="214.984"/><circle cx="201.489" cy="185.496" fill="none" r="29.489" stroke="#474747" stroke-linecap="round" stroke-linejoin="round" stroke-miterlimit="10" stroke-width="15"/></g><circle cx="353.507" cy="123.648" fill="#474747" r="11.784"/><circle cx="391.593" cy="123.648" fill="#474747" r="11.784"/><circle cx="429.679" cy="123.648" fill="#474747" r="11.784"/></g></svg>