<?xml version="1.0" encoding="UTF-8" standalone="no" ?>
<!DOCTYPE svg PUBLIC "-//W3C//DTD SVG 1.1//EN" "http://www.w3.org/Graphics/SVG/1.1/DTD/svg11.dtd">
<svg xmlns="http://www.w3.org/2000/svg" xmlns:xlink="http://www.w3.org/1999/xlink" version="1.1" width="1280" height="1024" viewBox="0 0 1280 1024" xml:space="preserve">
<desc>Created with Fabric.js 5.3.0</desc>
<defs>
</defs>
<g transform="matrix(1 0 0 1 640 512)" id="background-logo"  >
<rect style="stroke: none; stroke-width: 0; stroke-dasharray: none; stroke-linecap: butt; stroke-dashoffset: 0; stroke-linejoin: miter; stroke-miterlimit: 4; fill: rgb(255,255,255); fill-opacity: 0; fill-rule: nonzero; opacity: 1;"  paint-order="stroke"  x="-640" y="-512" rx="0" ry="0" width="1280" height="1024" />
</g>
<g transform="matrix(3.0796043460575895 0 0 3.07960434605759 640.499420092785 490.0255159174532)" id="logo-logo"  >
<g style=""  paint-order="stroke"   >
		<g transform="matrix(1.4604247518985782 0 0 1.4604247518985785 -7.4333138400107e-7 0)"  >
<linearGradient id="SVGID_1_7449" gradientUnits="userSpaceOnUse" gradientTransform="matrix(-1 0 0 -1 350.0007324 99.7798004)"  x1="338.4275818" y1="31.8604107" x2="261.5714111" y2="67.699028">
<stop offset="0%" style="stop-color:rgb(216,216,216);stop-opacity: 1"/>
<stop offset="100%" style="stop-color:rgb(134,134,134);stop-opacity: 1"/>
</linearGradient>
<path style="stroke: none; stroke-width: 1; stroke-dasharray: none; stroke-linecap: butt; stroke-dashoffset: 0; stroke-linejoin: miter; stroke-miterlimit: 4; fill: url(#SVGID_1_7449); fill-rule: nonzero; opacity: 1;"  paint-order="stroke"  transform=" translate(-50.000363593561744, -50.000067702544726)" d="M 26.9519215 0.0000689 C 46.2264405 0.0000689 64.93261150000001 7.715929699999999 78.6077214 21.3921626 C 92.8735962 35.6569214 100.65448 55.4016991 99.9560928 75.5629272 L 99.9527282 75.7036132 C 99.7307739 82.11351010000001 97.12780749999999 88.11479940000001 92.621376 92.6206664 C 88.11494450000001 97.1265334 82.1265487 99.72950730000001 75.7592544 99.9503402 L 75.5137557 99.9576263 C 55.3760642 100.6487274 35.6587485 92.8723297 21.393989500000004 78.6070098 C 7.1292315 64.3422546 -0.6527684 44.5980377 0.0444952 24.4368038 L 0.0512212 24.248476 C 0.2720587 17.8800602 2.8750268 11.8849382 7.3814572 7.379629099999999 C 11.887888 2.8731985 17.8762836 0.2702306 24.2446995 0.050514 L 24.4588108 0.042667000000000004 C 25.2905941 0.014642 26.1223793 0.0000689 26.9519215 0.0000689 z M 73.0329742 94.2606964 C 73.7986221 94.2606964 74.5631408 94.2472381 75.3299102 94.2209015 L 75.5754089 94.2136154 C 80.4697036 94.0437774 85.0882339 92.03662109999999 88.5633468 88.5615158 C 92.0384521 85.087532 94.04504390000001 80.45722959999999 94.2165603 75.5231323 L 94.2199249 75.3824463 C 94.8633804 56.7878189 87.6934433 38.5950661 74.54969019999999 25.450191499999995 C 61.4059372 12.3064356 43.2221527 5.15556 24.6505032 5.7788372 L 24.43639 5.7866845 C 19.5320054 5.955956 14.914594699999999 7.9625506 11.439486599999999 11.437658299999999 C 7.965499499999998 14.912766399999999 5.957783799999999 19.535781899999996 5.786270699999998 24.4569836 L 5.779544399999998 24.6441899 C 5.138330999999998 43.2113572 12.308263799999999 61.4046651 25.4520183 74.54898270000001 C 38.0532112 87.1496124 55.28302 94.2606964 73.0329742 94.2606964 z" stroke-linecap="round" />
</g>
		<g transform="matrix(1.4604247518985782 0 0 1.4604247518985785 0.0007193447439135525 -0.0008109309493136152)"  >
<linearGradient id="SVGID_2_7450" gradientUnits="userSpaceOnUse" gradientTransform="matrix(-1 0 0 -1 350.0007324 99.7798004)"  x1="328.9928894" y1="36.2602081" x2="271.0068359" y2="63.2995567">
<stop offset="0%" style="stop-color:rgb(216,216,216);stop-opacity: 1"/>
<stop offset="100%" style="stop-color:rgb(134,134,134);stop-opacity: 1"/>
</linearGradient>
<path style="stroke: none; stroke-width: 1; stroke-dasharray: none; stroke-linecap: butt; stroke-dashoffset: 0; stroke-linejoin: miter; stroke-miterlimit: 4; fill: url(#SVGID_2_7450); fill-rule: nonzero; opacity: 1;"  paint-order="stroke"  transform=" translate(-50.00085666112606, -49.99951243193029)" d="M 27.8857155 10.7213383 C 44.0830841 10.7213383 59.8073845 17.206336999999998 71.3010254 28.6999779 C 83.2890244 40.6879807 89.8289566 57.28162 89.2426758 74.2261353 L 89.2359467 74.4167023 C 88.9590607 82.4464493 82.4482727 88.9577942 74.4151688 89.2358017 L 74.2223587 89.2419663 C 57.289615600000005 89.8232041 40.6898079 83.2883225 28.700683599999998 71.299759 C 16.7126827 59.3117561 10.1727533 42.7181168 10.759038 25.7741604 L 10.7657643 25.58247 C 11.042652200000001 17.552726800000002 17.5534344 11.0419446 25.5876599 10.7639361 L 25.7871991 10.7572098 C 26.4867039 10.7336693 27.1873322 10.7213383 27.8857155 10.7213383 z M 72.1249619 83.5388641 C 72.7594529 83.5388641 73.3928147 83.52765649999999 74.0284272 83.5057983 L 74.2212373 83.4996261 C 79.248932 83.3253097 83.3271409 79.2471084 83.5009004 74.214363 L 83.5076219 74.023796 C 84.0378572 58.66773980000001 78.1099931 43.62500750000001 67.24299640000001 32.758007000000006 C 56.3737564 21.8898869 41.2884216 15.9765978 25.9732857 16.4933796 L 25.7737465 16.5001068 C 20.753896700000002 16.6738624 16.674568200000003 20.7520695 16.500812500000002 25.784250200000002 L 16.494087200000003 25.9759406 C 15.963852900000003 41.3325576 21.8917141 56.3741683 32.758712700000004 67.2417296 C 43.1773109 77.6597672 57.4331017 83.5388641 72.1249619 83.5388641 z" stroke-linecap="round" />
</g>
		<g transform="matrix(1.4604247518985782 0 0 1.4604247518985785 0 0.00000308739083720866)"  >
<linearGradient id="SVGID_3_7451" gradientUnits="userSpaceOnUse" gradientTransform="matrix(-1.346898e-10 1 -1 -1.346898e-10 224.8902588 -125.110466)"  x1="125.1115189" y1="174.8899078" x2="225.1095428" y2="174.8899078">
<stop offset="0%" style="stop-color:rgb(216,216,216);stop-opacity: 1"/>
<stop offset="100%" style="stop-color:rgb(134,134,134);stop-opacity: 1"/>
</linearGradient>
<path style="stroke: none; stroke-width: 1; stroke-dasharray: none; stroke-linecap: butt; stroke-dashoffset: 0; stroke-linejoin: miter; stroke-miterlimit: 4; fill: url(#SVGID_3_7451); fill-rule: nonzero; opacity: 1;"  paint-order="stroke"  transform=" translate(-50.00036410254473, -50.00006981658097)" d="M 0.0003641 73.0485153 C 0.0003641 53.77399440000001 7.716224899999999 35.06782150000001 21.392455899999998 21.392711600000005 C 35.6572151 7.1268334 55.4019928 -0.6540458 75.5632248 0.0443389 L 75.7039108 0.0477019 C 82.1138077 0.2696604 88.1150894 2.8726285 92.620964 7.3790588999999995 C 97.126831 11.885489499999998 99.7297973 17.8738862 99.9506378 24.2411805 L 99.9579239 24.486679199999998 C 100.649025 44.6243707 92.87262729999999 64.3416826 78.6073074 78.6064454 C 64.3425522 92.8712006 44.5983314 100.6531983 24.437099399999994 99.9559403 L 24.248771599999994 99.9492112 C 17.880355799999993 99.7283707 11.885233799999995 97.1254044 7.379924699999993 92.61897289999999 C 2.873494099999993 88.1125489 0.2705262999999931 82.12415329999999 0.05080979999999258 75.75573739999999 L 0.04296279999999258 75.54162609999999 C 0.0149372 74.7098389 0.0003641 73.8780518 0.0003641 73.0485153 z M 94.2609863 26.9674587 C 94.2609863 26.2018127 94.2475357 25.437290200000003 94.2211914 24.6705246 L 94.2139053 24.425024 C 94.04407499999999 19.5307274 92.03691859999999 14.912196100000001 88.5618133 11.437088000000001 C 85.0878219 7.9619803000000005 80.4575271 5.955385700000001 75.5234298 5.783872100000001 L 75.3827438 5.780509000000001 C 56.788112600000005 5.137053500000001 38.5953636 12.3069868 25.450485200000003 25.450743700000004 C 12.3067303 38.5944977 5.1558552 56.7782822 5.7791324 75.3499298 L 5.7869797 75.5640411 C 5.9562512 80.4684295 7.9628458 85.08583829999999 11.437954 88.5609436 C 14.9130621 92.034935 19.5360756 94.0426483 24.4572773 94.2141647 L 24.644485500000002 94.2208862 C 43.2116509 94.86209869999999 61.4049645 87.6921692 74.5492783 74.5484161 C 87.14991 61.9472237 94.2609863 44.7174149 94.2609863 26.9674587 z" stroke-linecap="round" />
</g>
		<g transform="matrix(1.4604247518985782 0 0 1.4604247518985785 -0.6236011537134232 62.670208955125645)"  >
<linearGradient id="SVGID_4_7452" gradientUnits="userSpaceOnUse" gradientTransform="matrix(-1 0 0 -1 350.0007324 99.7798004)"  x1="322.1843262" y1="-2.9733627" x2="245.3281555" y2="32.8652611">
<stop offset="0%" style="stop-color:rgb(216,216,216);stop-opacity: 1"/>
<stop offset="100%" style="stop-color:rgb(134,134,134);stop-opacity: 1"/>
</linearGradient>
<path style="stroke: none; stroke-width: 1; stroke-dasharray: none; stroke-linecap: butt; stroke-dashoffset: 0; stroke-linejoin: miter; stroke-miterlimit: 4; fill: url(#SVGID_4_7452); fill-rule: nonzero; opacity: 1;"  paint-order="stroke"  transform=" translate(-49.57336425, -92.91238405)" d="M 45.3223267 88.2496338 C 42.850830099999996 89.3588867 40.3212891 90.20581059999999 37.733154299999995 90.8555908 C 43.030334499999995 93.7779541 48.67376709999999 96.0314941 54.518371599999995 97.5751343 C 56.797546399999995 96.0911865 59.093627899999994 94.63476560000001 61.41357419999999 93.2163697 C 55.8596802 92.2306519 50.4490967 90.5668335 45.3223267 88.2496338 z" stroke-linecap="round" />
</g>
		<g transform="matrix(1.4604247518985782 0 0 1.4604247518985785 0.2675931854465716 -61.94491858312921)"  >
<linearGradient id="SVGID_5_7453" gradientUnits="userSpaceOnUse" gradientTransform="matrix(-1 0 0 -1 350.0007324 99.7798004)"  x1="354.5189209" y1="66.3683777" x2="277.6627502" y2="102.2070007">
<stop offset="0%" style="stop-color:rgb(216,216,216);stop-opacity: 1"/>
<stop offset="100%" style="stop-color:rgb(134,134,134);stop-opacity: 1"/>
</linearGradient>
<path style="stroke: none; stroke-width: 1; stroke-dasharray: none; stroke-linecap: butt; stroke-dashoffset: 0; stroke-linejoin: miter; stroke-miterlimit: 4; fill: url(#SVGID_5_7453); fill-rule: nonzero; opacity: 1;"  paint-order="stroke"  transform=" translate(-50.1835938, -7.584381099999999)" d="M 55.3026123 12.0358887 C 57.6008301 11.051696799999998 59.9151611 10.1052246 62.2061768 9.1044922 C 57.6925049 6.621032699999999 52.927246100000005 4.622619599999999 48.001587 3.1328734999999996 C 47.6721192 3.3602904999999996 47.3190308 3.5614623999999995 46.931823800000004 3.7068480999999998 C 44.037841900000004 4.793518 41.0697022 5.6627807 38.1610108 6.702636699999999 C 44.0930176 7.7150269 49.8613281 9.5126343 55.3026123 12.0358887 z" stroke-linecap="round" />
</g>
		<g transform="matrix(1.4604247518985782 0 0 1.4604247518985785 -52.20993767191112 -22.310261970305874)"  >
<linearGradient id="SVGID_6_7454" gradientUnits="userSpaceOnUse" gradientTransform="matrix(-1 0 0 -1 350.0007324 99.7798004)"  x1="341.0915527" y1="62.2452087" x2="283.1205444" y2="89.2775269">
<stop offset="0%" style="stop-color:rgb(216,216,216);stop-opacity: 1"/>
<stop offset="100%" style="stop-color:rgb(134,134,134);stop-opacity: 1"/>
</linearGradient>
<path style="stroke: none; stroke-width: 1; stroke-dasharray: none; stroke-linecap: butt; stroke-dashoffset: 0; stroke-linejoin: miter; stroke-miterlimit: 4; fill: url(#SVGID_6_7454); fill-rule: nonzero; opacity: 1;"  paint-order="stroke"  transform=" translate(-14.250533374164288, -34.7235107)" d="M 16.4940796 25.9759521 L 16.5007935 25.7842407 C 16.5217286 25.177734400000002 16.6022339 24.585998500000002 16.731445400000002 24.0123901 C 14.608764700000002 24.7887573 12.635864300000001 25.9418335 10.739196900000003 27.2277832 C 10.675476200000004 33.430908200000005 11.562561200000003 39.5675049 13.317016700000003 45.4346313 C 13.736267200000004 44.7434082 14.153625600000003 44.0499877 14.626587000000004 43.3975219 C 15.571594300000005 42.093933 16.686828700000003 40.9502563 17.765075800000005 39.7758178 C 16.7764893 35.2764282 16.3330078 30.6417236 16.4940796 25.9759521 z" stroke-linecap="round" />
</g>
		<g transform="matrix(1.4604247518985782 0 0 1.4604247518985785 52.00881208818987 21.85403797607529)"  >
<linearGradient id="SVGID_7_7455" gradientUnits="userSpaceOnUse" gradientTransform="matrix(-1 0 0 -1 350.0007324 99.7798004)"  x1="317.0803223" y1="10.7136383" x2="259.1234436" y2="37.7393837">
<stop offset="0%" style="stop-color:rgb(216,216,216);stop-opacity: 1"/>
<stop offset="100%" style="stop-color:rgb(134,134,134);stop-opacity: 1"/>
</linearGradient>
<path style="stroke: none; stroke-width: 1; stroke-dasharray: none; stroke-linecap: butt; stroke-dashoffset: 0; stroke-linejoin: miter; stroke-miterlimit: 4; fill: url(#SVGID_7_7455); fill-rule: nonzero; opacity: 1;"  paint-order="stroke"  transform=" translate(-85.61247764730456, -64.96423339999998)" d="M 83.5076294 74.0238037 L 83.5009155 74.2143555 C 83.4683838 75.1573487 83.29864500000001 76.0668335 83.0113525 76.92340089999999 C 84.739624 76.0185547 86.4811401 75.00854489999999 87.727417 73.9512329 C 88.1898804 73.55889889999999 88.7123413 73.27301019999999 89.2564697 73.08349609999999 C 89.36346429999999 66.2223511 88.3127441 59.43627929999999 86.2029419 53.00506589999999 C 84.6911621 54.94927979999999 83.3313599 57.006896999999995 81.9610596 59.05767819999999 C 83.1395264 63.9208374 83.6826782 68.9533081 83.5076294 74.0238037 z" stroke-linecap="round" />
</g>
		<g transform="matrix(1.4604247518985782 0 0 1.4604247518985785 -0.0008113959624438394 -0.0007155791598165706)"  >
<linearGradient id="SVGID_8_7456" gradientUnits="userSpaceOnUse" gradientTransform="matrix(-1.346898e-10 1 -1 -1.346898e-10 224.8902588 -125.110466)"  x1="135.8319244" y1="174.8904572" x2="214.3881531" y2="174.8904572">
<stop offset="0%" style="stop-color:rgb(216,216,216);stop-opacity: 1"/>
<stop offset="100%" style="stop-color:rgb(134,134,134);stop-opacity: 1"/>
</linearGradient>
<path style="stroke: none; stroke-width: 1; stroke-dasharray: none; stroke-linecap: butt; stroke-dashoffset: 0; stroke-linejoin: miter; stroke-miterlimit: 4; fill: url(#SVGID_8_7456); fill-rule: nonzero; opacity: 1;"  paint-order="stroke"  transform=" translate(-49.999808513520804, -49.99957772238048)" d="M 10.721633 72.1147156 C 10.721633 55.917350799999994 17.2066327 40.193046599999995 28.7002745 28.699409499999994 C 40.6882744 16.7114048 57.2819176 10.1714764 74.2264328 10.757761 L 74.4169998 10.7644863 C 82.4467392 11.0413742 88.9580841 17.5521583 89.2360916 25.5852623 L 89.24226379999999 25.7780743 C 89.82350159999999 42.7108193 83.28861239999999 59.3106289 71.30005649999998 71.2997494 C 59.3120499 83.2877502 42.7184105 89.8276825 25.774456 89.241394 L 25.5827636 89.2346725 C 17.553022300000002 88.95777890000001 11.042240099999999 82.4469985 10.7642307 74.41277310000001 L 10.757505400000001 74.2132339 C 10.733964 73.5137253 10.721633 72.8131027 10.721633 72.1147156 z M 83.5391617 27.8754711 C 83.5391617 27.2409839 83.5279465 26.607616399999998 83.50608829999999 25.9720077 L 83.49992369999998 25.7791957 C 83.32560729999999 20.7514991 79.24739839999998 16.673292099999998 74.21466059999999 16.499536399999997 L 74.02408599999998 16.492809199999996 C 58.66803359999999 15.962575799999996 43.625301399999984 21.890437999999996 32.75830079999998 32.7574386 C 21.8901825 43.6266785 15.9768934 58.7120094 16.4936752 74.0271454 L 16.500400499999998 74.2266846 C 16.674156099999998 79.2465363 20.7523651 83.3258667 25.784545899999998 83.49961859999999 L 25.976236299999997 83.50634769999999 C 41.332851399999996 84.036583 56.3744659 78.10871889999999 67.2420291 67.2417222 C 77.6600647 56.8231201 83.5391617 42.5673294 83.5391617 27.8754711 z" stroke-linecap="round" />
</g>
		<g transform="matrix(1.4604247518985782 0 0 1.4604247518985785 51.476588404473375 -21.39682791791782)"  >
<linearGradient id="SVGID_9_7457" gradientUnits="userSpaceOnUse" gradientTransform="matrix(-1 0 0 -1 350.0007324 99.7798004)"  x1="337.7828064" y1="30.4776611" x2="260.9289856" y2="66.3151932">
<stop offset="0%" style="stop-color:rgb(216,216,216);stop-opacity: 1"/>
<stop offset="100%" style="stop-color:rgb(134,134,134);stop-opacity: 1"/>
</linearGradient>
<path style="stroke: none; stroke-width: 1; stroke-dasharray: none; stroke-linecap: butt; stroke-dashoffset: 0; stroke-linejoin: miter; stroke-miterlimit: 4; fill: url(#SVGID_9_7457); fill-rule: nonzero; opacity: 1;"  paint-order="stroke"  transform=" translate(-85.24804689999999, -35.3489685)" d="M 90.8505249 37.718689 C 88.1980591 32.9117432 85.0144043 28.382873599999996 81.3123169 24.2539673 C 81.2426758 26.6270752 80.5682983 28.9541016 79.6455689 31.1931152 C 83.3516236 35.8689575 86.4069825 41.0048217 88.7491456 46.443969700000004 C 89.55896 43.5633545 90.1552124 40.6087646 90.8505249 37.718689 z" stroke-linecap="round" />
</g>
		<g transform="matrix(1.4604247518985782 0 0 1.4604247518985785 -0.37677995090285776 46.387284018342484)"  >
<linearGradient id="SVGID_10_7458" gradientUnits="userSpaceOnUse" gradientTransform="matrix(-1 0 0 -1 350.0007324 99.7798004)"  x1="317.0106812" y1="10.5642424" x2="259.0245972" y2="37.6035919">
<stop offset="0%" style="stop-color:rgb(216,216,216);stop-opacity: 1"/>
<stop offset="100%" style="stop-color:rgb(134,134,134);stop-opacity: 1"/>
</linearGradient>
<path style="stroke: none; stroke-width: 1; stroke-dasharray: none; stroke-linecap: butt; stroke-dashoffset: 0; stroke-linejoin: miter; stroke-miterlimit: 4; fill: url(#SVGID_10_7458); fill-rule: nonzero; opacity: 1;"  paint-order="stroke"  transform=" translate(-49.742370699999995, -81.7629394)" d="M 48.1870728 78.1142578 C 45.880127 79.3083496 43.4306641 80.0442505 40.9701539 80.7730102 C 44.085998599999996 82.6029052 47.355285699999996 84.154663 50.7349854 85.411621 C 53.4396973 84.4747924 56.046814 83.267456 58.5145875 81.816101 C 54.9599609 80.9157715 51.4955444 79.6878662 48.1870728 78.1142578 z" stroke-linecap="round" />
</g>
		<g transform="matrix(1.4604247518985782 0 0 1.4604247518985785 -1.2926652532157163 -46.774114689125526)"  >
<linearGradient id="SVGID_11_7459" gradientUnits="userSpaceOnUse" gradientTransform="matrix(-1 0 0 -1 350.0007324 99.7798004)"  x1="341.2966309" y1="62.6486778" x2="283.3117065" y2="89.6874771">
<stop offset="0%" style="stop-color:rgb(216,216,216);stop-opacity: 1"/>
<stop offset="100%" style="stop-color:rgb(134,134,134);stop-opacity: 1"/>
</linearGradient>
<path style="stroke: none; stroke-width: 1; stroke-dasharray: none; stroke-linecap: butt; stroke-dashoffset: 0; stroke-linejoin: miter; stroke-miterlimit: 4; fill: url(#SVGID_11_7459); fill-rule: nonzero; opacity: 1;"  paint-order="stroke"  transform=" translate(-49.11523445, -17.97232055)" d="M 55.1584473 19.8223267 C 55.354797399999995 19.713440000000002 55.5556641 19.612732 55.7640992 19.5308838 C 56.543090899999996 19.224853500000002 57.330566499999996 18.952148400000002 58.12451179999999 18.7017822 C 55 16.9381104 51.7205811 15.4724121 48.3433228 14.2786865 C 45.5895997 15.462402299999999 42.828552300000005 16.6258545 40.105957100000005 17.8724365 C 43.9368897 18.7405395 47.659179800000004 20.025939899999997 51.22381600000001 21.6659546 C 52.4733276 20.9351196 53.7914429 20.3222656 55.1584473 19.8223267 z" stroke-linecap="round" />
</g>
</g>
</g>
</svg>