<?xml version="1.0" ?><svg data-name="Layer 1" id="Layer_1" viewBox="0 0 32 32" xmlns="http://www.w3.org/2000/svg"><defs><style>.cls-1{fill:none;stroke:#414042;stroke-linecap:round;stroke-linejoin:round;}</style></defs><title/><path class="cls-1" d="M0.5,29.38h0a2.12,2.12,0,0,1,.62-1.5l6.76-6.76a2.12,2.12,0,0,1,1.5-.62h0a2.12,2.12,0,0,1,2.12,2.12h0a2.12,2.12,0,0,1-.62,1.5L4.12,30.88a2.12,2.12,0,0,1-1.5.62h0A2.12,2.12,0,0,1,.5,29.38Z"/><line class="cls-1" x1="12.72" x2="10.88" y1="19.28" y2="21.12"/><line class="cls-1" x1="10.5" x2="7.5" y1="24.5" y2="21.5"/><line class="cls-1" x1="4.5" x2="1.5" y1="30.5" y2="27.5"/><circle class="cls-1" cx="20.5" cy="11.5" r="11"/><circle class="cls-1" cx="20.5" cy="11.5" r="9"/><path class="cls-1" d="M20.5,4.5a7,7,0,0,0-7,7"/></svg>